<svg width="30" height="30" viewBox="0 0 100 100" fill="none" xmlns="http://www.w3.org/2000/svg"><circle cx="50" cy="50" r="50" fill="#D41F30"></circle><g clip-path="url(#clip0_494_919)"><path d="M4 41.9294H14.2462L10.3554 62H18.5579L22.1417 41.9294H32.1674L32.9421 38H4.7811L4 41.9294Z" fill="white"></path><path d="M35.5295 38L32.3408 55.9626L37.3233 62H59.2493L63.4351 38H55.4127L51.8748 58.0054H41.9079L40.3136 56.0618L43.403 38H35.5295Z" fill="white"></path><path d="M61.9521 62H69.8523L71.1324 53.9767H91.1276L91.9216 49.9995H71.8832L72.8094 43.9575L75.1491 41.8825H85.3456L84.5508 45.9874H92.54L93.9524 38H72.1037L65.0857 44.0016L61.9521 62Z" fill="white"></path></g><defs><clipPath id="clip0_494_919"><rect width="89.9521" height="24" fill="white" transform="translate(4 38)"></rect></clipPath></defs></svg>